<?xml version="1.0" encoding="UTF-8" standalone="no"?>
<!-- Created with Inkscape (http://www.inkscape.org/) -->

<svg
   width="1920"
   height="800"
   viewBox="0 0 507.99999 211.66667"
   version="1.1"
   id="svg1"
   xml:space="preserve"
   inkscape:export-filename="safeking_logo.png"
   inkscape:export-xdpi="96"
   inkscape:export-ydpi="96"
   inkscape:version="1.3 (1:1.3+202307231459+0e150ed6c4)"
   sodipodi:docname="projeto_safeking.svg"
   xmlns:inkscape="http://www.inkscape.org/namespaces/inkscape"
   xmlns:sodipodi="http://sodipodi.sourceforge.net/DTD/sodipodi-0.dtd"
   xmlns:xlink="http://www.w3.org/1999/xlink"
   xmlns="http://www.w3.org/2000/svg"
   xmlns:svg="http://www.w3.org/2000/svg"><sodipodi:namedview
     id="namedview1"
     pagecolor="#ffffff"
     bordercolor="#000000"
     borderopacity="0.25"
     inkscape:showpageshadow="2"
     inkscape:pageopacity="0.0"
     inkscape:pagecheckerboard="0"
     inkscape:deskcolor="#d1d1d1"
     inkscape:document-units="px"
     inkscape:zoom="0.25"
     inkscape:cx="968"
     inkscape:cy="372"
     inkscape:window-width="1366"
     inkscape:window-height="699"
     inkscape:window-x="0"
     inkscape:window-y="32"
     inkscape:window-maximized="1"
     inkscape:current-layer="svg1"
     showguides="false" /><defs
     id="defs1"><linearGradient
       id="linearGradient25"
       inkscape:collect="always"><stop
         style="stop-color:#f0c946;stop-opacity:1;"
         offset="0"
         id="stop24" /><stop
         style="stop-color:#f09c46;stop-opacity:1;"
         offset="1"
         id="stop25" /></linearGradient><linearGradient
       id="linearGradient22"
       inkscape:collect="always"><stop
         style="stop-color:#f0c946;stop-opacity:0.99607843;"
         offset="0.51245439"
         id="stop22" /><stop
         style="stop-color:#f09c46;stop-opacity:1;"
         offset="1"
         id="stop23" /></linearGradient><linearGradient
       id="linearGradient15"
       inkscape:collect="always"><stop
         style="stop-color:#f0c946;stop-opacity:1;"
         offset="0.44461831"
         id="stop16" /><stop
         style="stop-color:#4691f0;stop-opacity:1;"
         offset="1"
         id="stop17" /></linearGradient><linearGradient
       id="linearGradient14"
       inkscape:collect="always"><stop
         style="stop-color:#f3ff00;stop-opacity:0.24227503;"
         offset="0.73101044"
         id="stop15" /><stop
         style="stop-color:#000080;stop-opacity:1;"
         offset="1"
         id="stop14" /></linearGradient><radialGradient
       inkscape:collect="always"
       xlink:href="#linearGradient14"
       id="radialGradient49"
       cx="105.53236"
       cy="178.34097"
       fx="105.53236"
       fy="178.34097"
       r="10.272288"
       gradientTransform="matrix(1,0,0,1.0743601,0,-13.261445)"
       gradientUnits="userSpaceOnUse" /><filter
       style="color-interpolation-filters:sRGB;"
       inkscape:label="Drop Shadow"
       id="filter72"
       x="-0.019667452"
       y="-0.1051286"
       width="1.039917"
       height="1.2518498"><feFlood
         result="flood"
         in="SourceGraphic"
         flood-opacity="0.380392"
         flood-color="rgb(0,1,149)"
         id="feFlood71" /><feGaussianBlur
         result="blur"
         in="SourceGraphic"
         stdDeviation="3.212345"
         id="feGaussianBlur71" /><feOffset
         result="offset"
         in="blur"
         dx="1.069396"
         dy="6.000000"
         id="feOffset71" /><feComposite
         result="comp1"
         operator="out"
         in="flood"
         in2="offset"
         id="feComposite71" /><feComposite
         result="comp2"
         operator="atop"
         in="comp1"
         in2="SourceGraphic"
         id="feComposite72" /></filter><linearGradient
       inkscape:collect="always"
       xlink:href="#linearGradient15"
       id="linearGradient17"
       x1="94.599318"
       y1="141.22364"
       x2="160.83691"
       y2="141.22364"
       gradientUnits="userSpaceOnUse" /><linearGradient
       inkscape:collect="always"
       xlink:href="#linearGradient25"
       id="linearGradient21"
       x1="93.979301"
       y1="141.22371"
       x2="161.45692"
       y2="141.22371"
       gradientUnits="userSpaceOnUse"
       spreadMethod="pad" /><radialGradient
       inkscape:collect="always"
       xlink:href="#linearGradient22"
       id="radialGradient23"
       cx="76.74649"
       cy="188.08751"
       fx="76.74649"
       fy="188.08751"
       r="76.728836"
       gradientTransform="matrix(1,0,0,0.16712678,0,156.65305)"
       gradientUnits="userSpaceOnUse" /><filter
       style="color-interpolation-filters:sRGB;"
       inkscape:label="Drop Shadow"
       id="filter39"
       x="-0.0074203726"
       y="-0.051500861"
       width="1.0175693"
       height="1.104194"><feFlood
         result="flood"
         in="SourceGraphic"
         flood-opacity="0.380392"
         flood-color="rgb(0,0,65)"
         id="feFlood38" /><feGaussianBlur
         result="blur"
         in="SourceGraphic"
         stdDeviation="1.000000"
         id="feGaussianBlur38" /><feOffset
         result="offset"
         in="blur"
         dx="2.000000"
         dy="2.000000"
         id="feOffset38" /><feComposite
         result="comp1"
         operator="in"
         in="offset"
         in2="flood"
         id="feComposite38" /><feComposite
         result="comp2"
         operator="over"
         in="SourceGraphic"
         in2="comp1"
         id="feComposite39" /></filter></defs><g
     inkscape:groupmode="layer"
     id="layer2"
     inkscape:label="bg"
     style="display:none"><rect
       style="fill:#1a1a1a;fill-opacity:0.996078;stroke-width:0;stroke-linecap:round;stroke-linejoin:round"
       id="rect1"
       width="508"
       height="211.66667"
       x="-5.0000006e-07"
       y="-2.7514648e-06" /></g><g
     id="g9"
     transform="matrix(1.0698889,0,0,1.0698889,25.302362,-25.54852)"
     style="display:inline;filter:url(#filter39)"
     inkscape:label="safeking_logo"
     inkscape:export-filename="safeking_logo_colorido_sombra.svg"
     inkscape:export-xdpi="96"
     inkscape:export-ydpi="96"><g
       id="g4"
       transform="matrix(1.3177819,0,0,1.3177819,-129.9317,-66.302515)"
       style="fill:url(#linearGradient17)"
       inkscape:label="safeking_symbol"
       inkscape:export-filename="safeking_symbol.svg"
       inkscape:export-xdpi="96"
       inkscape:export-ydpi="96"><path
         id="path28"
         style="fill:#468ff0;stroke:#596370;stroke-width:4.09635;stroke-linecap:round;stroke-linejoin:round;stroke-opacity:1"
         d="m 127.71855,102.17579 c -12.7905,0.008 -23.1904,10.31174 -23.31638,23.10163 l -0.20938,25.38455 h 3.65992 l 0.17583,-23.90153 c 0.10649,-10.76139 9.23229,-19.43104 19.9942,-19.43768 10.76192,0.007 19.51239,8.67629 19.61888,19.43768 l -0.19902,23.90154 h 3.80084 l -0.20934,-25.38437 c -0.12649,-12.78955 -10.15025,-23.09345 -22.94023,-23.10182 z"
         inkscape:label="path28"
         sodipodi:nodetypes="cccccccccccc" /><path
         id="path2"
         style="fill:url(#linearGradient21);fill-opacity:0.996078;stroke:#468ff0;stroke-width:1.2401;stroke-linecap:round;stroke-linejoin:round;stroke-dasharray:none;stroke-opacity:1"
         d="m 128.14677,112.64598 -11.41743,27.01074 -22.130022,-17.21961 11.679502,54.87074 42.79407,0.001 11.76402,-53.99471 -21.75873,16.42717 z m -0.38119,31.83832 c 3.54296,-1.1e-4 6.41513,2.87206 6.41502,6.41502 -0.005,2.08988 -1.02829,4.04617 -2.74165,5.24285 l 0.6319,1.73956 4.30453,11.85653 h -8.6098 -8.60944 l 4.30453,-11.85653 0.6319,-1.73956 c -1.71336,-1.19668 -2.73636,-3.15297 -2.74165,-5.24285 -1.1e-4,-3.54282 2.87184,-6.41493 6.41466,-6.41502 z"
         sodipodi:nodetypes="ccccccccccccccccccc" /><g
         id="g2"
         transform="matrix(0.88102963,0,0,1.1984403,34.788579,-56.619713)"
         style="display:inline;fill:url(#linearGradient17);stroke:url(#radialGradient49);stroke-width:0.999992;stroke-dasharray:none" /><path
         d="m 127.71823,148.94695 a 5.6867542,5.6867542 0 0 0 -0.98753,0.0863 5.6867542,5.6867542 0 0 0 -0.95757,0.25683 5.6867542,5.6867542 0 0 0 -0.89813,0.41858 5.6867542,5.6867542 0 0 0 -0.81236,0.56896 5.6867542,5.6867542 0 0 0 -0.70073,0.70073 5.6867542,5.6867542 0 0 0 -0.56844,0.81184 5.6867542,5.6867542 0 0 0 -0.4191,0.89865 5.6867542,5.6867542 0 0 0 -0.25631,0.95757 5.6867542,5.6867542 0 0 0 -0.0863,0.98753 5.6867542,5.6867542 0 0 0 0.0656,0.84801 5.6867542,5.6867542 0 0 0 0.19172,0.82838 5.6867542,5.6867542 0 0 0 0.31316,0.79116 5.6867542,5.6867542 0 0 0 0.42788,0.73536 5.6867542,5.6867542 0 0 0 0.53278,0.66301 5.6867542,7.368244 0 0 0 -0.53278,0.85989 5.6867542,7.368244 0 0 0 -0.42788,0.95343 5.6867542,7.368244 0 0 0 -0.31316,1.02526 5.6867542,7.368244 0 0 0 -0.19172,1.07436 5.6867542,7.368244 0 0 0 -0.0656,1.09915 5.6867542,7.368244 0 0 0 0.0698,1.15239 5.6867542,7.368244 0 0 0 0.20826,1.12448 5.6867542,7.368244 0 0 0 0.34158,1.06815 5.6867542,7.368244 0 0 0 0.46612,0.98598 5.6867542,7.368244 0 0 0 0.57981,0.87902 5.6867542,7.368244 0 0 0 0.67851,0.75086 5.6867542,7.368244 0 0 0 0.76068,0.6041 5.6867542,7.368244 0 0 0 0.82424,0.44235 5.6867542,7.368244 0 0 0 0.86764,0.27026 5.6867542,7.368244 0 0 0 0.88987,0.0904 5.6867542,7.368244 0 0 0 0.30799,-0.0103 5.6867542,7.368244 0 0 0 0.30696,-0.0326 5.6867542,7.368244 0 0 0 0.30489,-0.0537 5.6867542,7.368244 0 0 0 0.30231,-0.0754 5.6867542,7.368244 0 0 0 0.29921,-0.0961 5.6867542,7.368244 0 0 0 0.29455,-0.11731 5.6867542,7.368244 0 0 0 0.28887,-0.13746 5.6867542,7.368244 0 0 0 0.28319,-0.15761 5.6867542,7.368244 0 0 0 0.27544,-0.17725 5.6867542,7.368244 0 0 0 0.2682,-0.19637 5.6867542,7.368244 0 0 0 0.25941,-0.21497 5.6867542,7.368244 0 0 0 0.25063,-0.23307 5.6867542,7.368244 0 0 0 0.23978,-0.25011 5.6867542,7.368244 0 0 0 0.22945,-0.26613 5.6867542,7.368244 0 0 0 0.21755,-0.28216 5.6867542,7.368244 0 0 0 0.20568,-0.29714 5.6867542,7.368244 0 0 0 0.19327,-0.31109 5.6867542,7.368244 0 0 0 0.17931,-0.32401 5.6867542,7.368244 0 0 0 0.16588,-0.33641 5.6867542,7.368244 0 0 0 0.15193,-0.34727 5.6867542,7.368244 0 0 0 0.13643,-0.3576 5.6867542,7.368244 0 0 0 0.12195,-0.36639 5.6867542,7.368244 0 0 0 0.10594,-0.37465 5.6867542,7.368244 0 0 0 0.0904,-0.38137 5.6867542,7.368244 0 0 0 0.0744,-0.38757 5.6867542,7.368244 0 0 0 0.0584,-0.39171 5.6867542,7.368244 0 0 0 0.0413,-0.39533 5.6867542,7.368244 0 0 0 0.0248,-0.39791 5.6867542,7.368244 0 0 0 0.009,-0.39894 5.6867542,7.368244 0 0 0 -0.0641,-1.10019 5.6867542,7.368244 0 0 0 -0.19017,-1.07538 5.6867542,7.368244 0 0 0 -0.31161,-1.02682 5.6867542,7.368244 0 0 0 -0.42685,-0.95498 5.6867542,7.368244 0 0 0 -0.53175,-0.86144 5.6867542,5.6867542 0 0 0 0.5302,-0.66249 5.6867542,5.6867542 0 0 0 0.42581,-0.73433 5.6867542,5.6867542 0 0 0 0.31161,-0.78961 5.6867542,5.6867542 0 0 0 0.19121,-0.82682 5.6867542,5.6867542 0 0 0 0.0656,-0.84595 5.6867542,5.6867542 0 0 0 -0.0109,-0.34365 5.6867542,5.6867542 0 0 0 -0.031,-0.34209 5.6867542,5.6867542 0 0 0 -0.0517,-0.33952 5.6867542,5.6867542 0 0 0 -0.0718,-0.3359 5.6867542,5.6867542 0 0 0 -0.0925,-0.33072 5.6867542,5.6867542 0 0 0 -0.11214,-0.32505 5.6867542,5.6867542 0 0 0 -0.13126,-0.31729 5.6867542,5.6867542 0 0 0 -0.15038,-0.30903 5.6867542,5.6867542 0 0 0 -0.16898,-0.2992 5.6867542,5.6867542 0 0 0 -0.18603,-0.28836 5.6867542,5.6867542 0 0 0 -0.20361,-0.27647 5.6867542,5.6867542 0 0 0 -0.22014,-0.26406 5.6867542,5.6867542 0 0 0 -0.23564,-0.25012 5.6867542,5.6867542 0 0 0 -0.25012,-0.23564 5.6867542,5.6867542 0 0 0 -0.26355,-0.21963 5.6867542,5.6867542 0 0 0 -0.27698,-0.2036 5.6867542,5.6867542 0 0 0 -0.28836,-0.18655 5.6867542,5.6867542 0 0 0 -0.2992,-0.16899 5.6867542,5.6867542 0 0 0 -0.30903,-0.15037 5.6867542,5.6867542 0 0 0 -0.31729,-0.13126 5.6867542,5.6867542 0 0 0 -0.32453,-0.11214 5.6867542,5.6867542 0 0 0 -0.33125,-0.092 5.6867542,5.6867542 0 0 0 -0.33589,-0.0724 5.6867542,5.6867542 0 0 0 -0.33952,-0.0517 5.6867542,5.6867542 0 0 0 -0.3421,-0.031 5.6867542,5.6867542 0 0 0 -0.34313,-0.0103 z"
         style="display:none;fill:url(#linearGradient17);stroke:#76bc00;stroke-width:0;stroke-linecap:round;stroke-linejoin:round"
         id="path3" /><path
         id="path4"
         style="fill:#468ff0;fill-opacity:1;stroke:none;stroke-width:0;stroke-linecap:round;stroke-linejoin:round;stroke-opacity:1"
         d="m 131.70352,151.08586 a 3.985292,3.985292 0 0 1 -3.98529,3.98529 3.985292,3.985292 0 0 1 -3.98529,-3.98529 3.985292,3.985292 0 0 1 3.98529,-3.98529 3.985292,3.985292 0 0 1 3.98529,3.98529 z" /></g><g
       id="g7"
       transform="matrix(2.1282693,0,0,2.1282693,101.63511,-270.78159)"
       style="display:inline;fill:#f9f9f9;fill-opacity:0.996078"
       inkscape:label="safeking_text"><text
         xml:space="preserve"
         style="font-style:normal;font-variant:normal;font-weight:bold;font-stretch:normal;font-size:35.2777px;line-height:normal;font-family:'Fira Sans';-inkscape-font-specification:'Fira Sans, Bold';font-variant-ligatures:normal;font-variant-caps:normal;font-variant-numeric:normal;font-variant-east-asian:normal;text-align:center;text-decoration-color:#000000;text-anchor:middle;display:inline;fill:url(#radialGradient23);fill-opacity:0.996078;fill-rule:nonzero;stroke:none;stroke-width:3.96875;stroke-linecap:round;stroke-linejoin:round;stroke-dasharray:none"
         x="154.11031"
         y="200.31123"
         id="text5"><tspan
           sodipodi:role="line"
           id="tspan5"
           style="font-style:normal;font-variant:normal;font-weight:bold;font-stretch:normal;font-size:35.2777px;font-family:'Fira Sans';-inkscape-font-specification:'Fira Sans, Bold';font-variant-ligatures:normal;font-variant-caps:normal;font-variant-numeric:normal;font-variant-east-asian:normal;text-align:end;text-anchor:end;fill:url(#radialGradient23);fill-opacity:0.996078;fill-rule:nonzero;stroke:none;stroke-width:3.96875;stroke-dasharray:none"
           x="154.11031"
           y="200.31123">KING</tspan></text><text
         xml:space="preserve"
         style="font-style:normal;font-variant:normal;font-weight:bold;font-stretch:normal;font-size:35.2777px;line-height:normal;font-family:'Fira Sans';-inkscape-font-specification:'Fira Sans, Bold';font-variant-ligatures:normal;font-variant-caps:normal;font-variant-numeric:normal;font-variant-east-asian:normal;text-align:center;text-decoration-color:#000000;text-anchor:middle;display:inline;fill:#4691f0;fill-opacity:0.996078;stroke:none;stroke-width:3.96875;stroke-linecap:round;stroke-linejoin:round;stroke-dasharray:none"
         x="38.146587"
         y="200.31123"
         id="text6"><tspan
           sodipodi:role="line"
           id="tspan6"
           style="font-style:normal;font-variant:normal;font-weight:bold;font-stretch:normal;font-size:35.2777px;font-family:'Fira Sans';-inkscape-font-specification:'Fira Sans, Bold';font-variant-ligatures:normal;font-variant-caps:normal;font-variant-numeric:normal;font-variant-east-asian:normal;fill:#4691f0;fill-opacity:0.996078;stroke:none;stroke-width:3.96875;stroke-dasharray:none"
           x="38.146587"
           y="200.31123">SAFE</tspan></text></g></g><g
     id="g13"
     transform="matrix(1.0698889,0,0,1.0698889,25.302362,-25.54852)"
     inkscape:label="material_safeking_logo"
     style="display:none"
     inkscape:export-filename="safeking_logo.svg"
     inkscape:export-xdpi="96"
     inkscape:export-ydpi="96"><g
       id="g6"
       transform="matrix(1.3177819,0,0,1.3177819,-129.9317,-66.302515)"
       style="display:inline;fill:#1a1a1a;fill-opacity:0.996078;stroke:none"
       inkscape:label="mt_safeking_symbol"
       inkscape:export-filename="safeking_symbol_black.svg"
       inkscape:export-xdpi="96"
       inkscape:export-ydpi="96"><path
         style="color:#000000;display:inline;fill:#1a1a1a;fill-opacity:0.996078;stroke:none;stroke-linecap:round;stroke-linejoin:round;-inkscape-stroke:none"
         d="m 128.0918,100.12695 c -13.88975,0.009 -25.60108,11.20162 -25.73828,25.13086 a 2.0483799,2.0483799 0 0 0 0,0.002 l -0.20899,25.38476 a 2.0483799,2.0483799 0 0 0 2.04883,2.06641 h 3.66016 a 2.0483799,2.0483799 0 0 0 2.04687,-2.03321 l 0.17578,-23.89648 v -0.006 c 0.0984,-9.61113 8.28554,-17.39727 17.94531,-17.4043 9.66203,0.006 17.47561,7.747 17.57227,17.40821 l -0.19922,23.86523 a 2.0483799,2.0483799 0 0 0 2.04883,2.06641 h 3.80078 a 2.0483799,2.0483799 0 0 0 2.04688,-2.03516 l 0.16601,-25.38476 a 2.0483799,2.0483799 0 0 0 0,-0.0332 c -0.13736,-13.88873 -11.47205,-25.12177 -25.36133,-25.13086 a 2.0483799,2.0483799 0 0 0 -0.002,0 2.0483799,2.0483799 0 0 0 -0.002,0.002 z m 0,4.09766 c 6.6e-4,0 0.001,0 0.002,0 6.6e-4,0 0.001,0 0.002,0 10.42848,0.009 19.03604,7.48813 20.86328,17.39844 -2.39256,-9.37299 -10.84739,-16.3411 -20.93554,-16.34766 a 2.0483799,2.0483799 0 0 0 -0.002,0 c -8.87823,0.005 -16.74303,5.3594 -20.18945,13.04492 3.05255,-8.19277 11.03864,-14.08826 20.25977,-14.0957 z"
         id="path40" /><path
         id="path1"
         style="fill:#1a1a1a;fill-opacity:0.996078;stroke:none;stroke-width:1.2401;stroke-linecap:round;stroke-linejoin:round;stroke-dasharray:none;stroke-opacity:1"
         d="m 128.14677,112.64598 -11.41743,27.01074 -22.130022,-17.21961 11.679502,54.87074 42.79273,-0.002 11.76536,-53.99187 -21.75873,16.42717 z m -0.38119,31.83832 c 3.54296,-1.1e-4 6.41513,2.87206 6.41502,6.41502 -0.005,2.08988 -1.02829,4.04617 -2.74165,5.24285 l 0.6319,1.73956 4.30453,11.85653 h -8.6098 -8.60944 l 4.30453,-11.85653 0.6319,-1.73956 c -1.71336,-1.19668 -2.73636,-3.15297 -2.74165,-5.24285 -1.1e-4,-3.54282 2.87184,-6.41493 6.41466,-6.41502 z"
         sodipodi:nodetypes="ccccccccccccccccccc" /><g
         id="g3"
         transform="matrix(0.88102963,0,0,1.1984403,34.788579,-56.619713)"
         style="display:inline;fill:#1a1a1a;fill-opacity:0.996078;stroke:none;stroke-width:0.999992;stroke-dasharray:none" /><path
         d="m 127.71823,148.94695 a 5.6867542,5.6867542 0 0 0 -0.98753,0.0863 5.6867542,5.6867542 0 0 0 -0.95757,0.25683 5.6867542,5.6867542 0 0 0 -0.89813,0.41858 5.6867542,5.6867542 0 0 0 -0.81236,0.56896 5.6867542,5.6867542 0 0 0 -0.70073,0.70073 5.6867542,5.6867542 0 0 0 -0.56844,0.81184 5.6867542,5.6867542 0 0 0 -0.4191,0.89865 5.6867542,5.6867542 0 0 0 -0.25631,0.95757 5.6867542,5.6867542 0 0 0 -0.0863,0.98753 5.6867542,5.6867542 0 0 0 0.0656,0.84801 5.6867542,5.6867542 0 0 0 0.19172,0.82838 5.6867542,5.6867542 0 0 0 0.31316,0.79116 5.6867542,5.6867542 0 0 0 0.42788,0.73536 5.6867542,5.6867542 0 0 0 0.53278,0.66301 5.6867542,7.368244 0 0 0 -0.53278,0.85989 5.6867542,7.368244 0 0 0 -0.42788,0.95343 5.6867542,7.368244 0 0 0 -0.31316,1.02526 5.6867542,7.368244 0 0 0 -0.19172,1.07436 5.6867542,7.368244 0 0 0 -0.0656,1.09915 5.6867542,7.368244 0 0 0 0.0698,1.15239 5.6867542,7.368244 0 0 0 0.20826,1.12448 5.6867542,7.368244 0 0 0 0.34158,1.06815 5.6867542,7.368244 0 0 0 0.46612,0.98598 5.6867542,7.368244 0 0 0 0.57981,0.87902 5.6867542,7.368244 0 0 0 0.67851,0.75086 5.6867542,7.368244 0 0 0 0.76068,0.6041 5.6867542,7.368244 0 0 0 0.82424,0.44235 5.6867542,7.368244 0 0 0 0.86764,0.27026 5.6867542,7.368244 0 0 0 0.88987,0.0904 5.6867542,7.368244 0 0 0 0.30799,-0.0103 5.6867542,7.368244 0 0 0 0.30696,-0.0326 5.6867542,7.368244 0 0 0 0.30489,-0.0537 5.6867542,7.368244 0 0 0 0.30231,-0.0754 5.6867542,7.368244 0 0 0 0.29921,-0.0961 5.6867542,7.368244 0 0 0 0.29455,-0.11731 5.6867542,7.368244 0 0 0 0.28887,-0.13746 5.6867542,7.368244 0 0 0 0.28319,-0.15761 5.6867542,7.368244 0 0 0 0.27544,-0.17725 5.6867542,7.368244 0 0 0 0.2682,-0.19637 5.6867542,7.368244 0 0 0 0.25941,-0.21497 5.6867542,7.368244 0 0 0 0.25063,-0.23307 5.6867542,7.368244 0 0 0 0.23978,-0.25011 5.6867542,7.368244 0 0 0 0.22945,-0.26613 5.6867542,7.368244 0 0 0 0.21755,-0.28216 5.6867542,7.368244 0 0 0 0.20568,-0.29714 5.6867542,7.368244 0 0 0 0.19327,-0.31109 5.6867542,7.368244 0 0 0 0.17931,-0.32401 5.6867542,7.368244 0 0 0 0.16588,-0.33641 5.6867542,7.368244 0 0 0 0.15193,-0.34727 5.6867542,7.368244 0 0 0 0.13643,-0.3576 5.6867542,7.368244 0 0 0 0.12195,-0.36639 5.6867542,7.368244 0 0 0 0.10594,-0.37465 5.6867542,7.368244 0 0 0 0.0904,-0.38137 5.6867542,7.368244 0 0 0 0.0744,-0.38757 5.6867542,7.368244 0 0 0 0.0584,-0.39171 5.6867542,7.368244 0 0 0 0.0413,-0.39533 5.6867542,7.368244 0 0 0 0.0248,-0.39791 5.6867542,7.368244 0 0 0 0.009,-0.39894 5.6867542,7.368244 0 0 0 -0.0641,-1.10019 5.6867542,7.368244 0 0 0 -0.19017,-1.07538 5.6867542,7.368244 0 0 0 -0.31161,-1.02682 5.6867542,7.368244 0 0 0 -0.42685,-0.95498 5.6867542,7.368244 0 0 0 -0.53175,-0.86144 5.6867542,5.6867542 0 0 0 0.5302,-0.66249 5.6867542,5.6867542 0 0 0 0.42581,-0.73433 5.6867542,5.6867542 0 0 0 0.31161,-0.78961 5.6867542,5.6867542 0 0 0 0.19121,-0.82682 5.6867542,5.6867542 0 0 0 0.0656,-0.84595 5.6867542,5.6867542 0 0 0 -0.0109,-0.34365 5.6867542,5.6867542 0 0 0 -0.031,-0.34209 5.6867542,5.6867542 0 0 0 -0.0517,-0.33952 5.6867542,5.6867542 0 0 0 -0.0718,-0.3359 5.6867542,5.6867542 0 0 0 -0.0925,-0.33072 5.6867542,5.6867542 0 0 0 -0.11214,-0.32505 5.6867542,5.6867542 0 0 0 -0.13126,-0.31729 5.6867542,5.6867542 0 0 0 -0.15038,-0.30903 5.6867542,5.6867542 0 0 0 -0.16898,-0.2992 5.6867542,5.6867542 0 0 0 -0.18603,-0.28836 5.6867542,5.6867542 0 0 0 -0.20361,-0.27647 5.6867542,5.6867542 0 0 0 -0.22014,-0.26406 5.6867542,5.6867542 0 0 0 -0.23564,-0.25012 5.6867542,5.6867542 0 0 0 -0.25012,-0.23564 5.6867542,5.6867542 0 0 0 -0.26355,-0.21963 5.6867542,5.6867542 0 0 0 -0.27698,-0.2036 5.6867542,5.6867542 0 0 0 -0.28836,-0.18655 5.6867542,5.6867542 0 0 0 -0.2992,-0.16899 5.6867542,5.6867542 0 0 0 -0.30903,-0.15037 5.6867542,5.6867542 0 0 0 -0.31729,-0.13126 5.6867542,5.6867542 0 0 0 -0.32453,-0.11214 5.6867542,5.6867542 0 0 0 -0.33125,-0.092 5.6867542,5.6867542 0 0 0 -0.33589,-0.0724 5.6867542,5.6867542 0 0 0 -0.33952,-0.0517 5.6867542,5.6867542 0 0 0 -0.3421,-0.031 5.6867542,5.6867542 0 0 0 -0.34313,-0.0103 z"
         style="display:none;fill:#1a1a1a;fill-opacity:0.996078;stroke:none;stroke-width:0;stroke-linecap:round;stroke-linejoin:round"
         id="path7" /><path
         id="path49"
         style="fill:#1a1a1a;fill-opacity:0.996078;stroke:none;stroke-width:0;stroke-linecap:round;stroke-linejoin:round"
         d="m 131.70352,151.08586 a 3.985292,3.985292 0 0 1 -3.98529,3.98529 3.985292,3.985292 0 0 1 -3.98529,-3.98529 3.985292,3.985292 0 0 1 3.98529,-3.98529 3.985292,3.985292 0 0 1 3.98529,3.98529 z" /><text
         xml:space="preserve"
         style="font-style:normal;font-variant:normal;font-weight:bold;font-stretch:normal;font-size:56.9749px;line-height:normal;font-family:'Fira Sans';-inkscape-font-specification:'Fira Sans, Bold';font-variant-ligatures:normal;font-variant-caps:normal;font-variant-numeric:normal;font-variant-east-asian:normal;text-align:center;text-decoration-color:#000000;text-anchor:middle;fill:#1a1a1a;fill-opacity:0.996078;fill-rule:nonzero;stroke:none;stroke-width:1.02746;stroke-linecap:round;stroke-linejoin:round;stroke-dasharray:none;stroke-opacity:1"
         x="187.86555"
         y="181.05052"
         id="text1"><tspan
           sodipodi:role="line"
           id="tspan1"
           style="fill:#1a1a1a;fill-opacity:0.996078;stroke:none;stroke-width:1.02746"
           x="187.86555"
           y="181.05052" /></text></g><g
       id="g50"
       transform="matrix(2.1282693,0,0,2.1282693,101.63511,-270.78159)"
       style="display:inline;fill:#1a1a1a;fill-opacity:0.996078"
       inkscape:label="mt_safeking_text"><text
         xml:space="preserve"
         style="font-style:normal;font-variant:normal;font-weight:bold;font-stretch:normal;font-size:35.2777px;line-height:normal;font-family:'Fira Sans';-inkscape-font-specification:'Fira Sans, Bold';font-variant-ligatures:normal;font-variant-caps:normal;font-variant-numeric:normal;font-variant-east-asian:normal;text-align:center;text-decoration-color:#000000;text-anchor:middle;fill:#1a1a1a;fill-opacity:0.996078;fill-rule:nonzero;stroke:none;stroke-width:3.96875;stroke-linecap:round;stroke-linejoin:round;stroke-dasharray:none"
         x="77.38147"
         y="200.31123"
         id="text8"><tspan
           sodipodi:role="line"
           id="tspan8"
           style="font-style:normal;font-variant:normal;font-weight:bold;font-stretch:normal;font-size:35.2777px;font-family:'Fira Sans';-inkscape-font-specification:'Fira Sans, Bold';font-variant-ligatures:normal;font-variant-caps:normal;font-variant-numeric:normal;font-variant-east-asian:normal;fill:#1a1a1a;fill-opacity:0.996078;fill-rule:nonzero;stroke:none;stroke-width:3.96875;stroke-dasharray:none"
           x="77.38147"
           y="200.31123">SAFEKING</tspan></text><text
         xml:space="preserve"
         style="font-style:normal;font-variant:normal;font-weight:bold;font-stretch:normal;font-size:35.2777px;line-height:normal;font-family:'Fira Sans';-inkscape-font-specification:'Fira Sans, Bold';font-variant-ligatures:normal;font-variant-caps:normal;font-variant-numeric:normal;font-variant-east-asian:normal;text-align:center;text-decoration-color:#000000;text-anchor:middle;fill:#1a1a1a;fill-opacity:0.996078;stroke:none;stroke-width:3.96875;stroke-linecap:round;stroke-linejoin:round;stroke-dasharray:none"
         x="38.146587"
         y="200.31123"
         id="text9"><tspan
           sodipodi:role="line"
           id="tspan9"
           style="font-style:normal;font-variant:normal;font-weight:bold;font-stretch:normal;font-size:35.2777px;font-family:'Fira Sans';-inkscape-font-specification:'Fira Sans, Bold';font-variant-ligatures:normal;font-variant-caps:normal;font-variant-numeric:normal;font-variant-east-asian:normal;fill:#1a1a1a;fill-opacity:0.996078;stroke:none;stroke-width:3.96875;stroke-dasharray:none"
           x="38.146587"
           y="200.31123">SAFE</tspan></text></g></g><path
     style="display:none;fill:#ffffff;fill-opacity:0.996078;fill-rule:nonzero;stroke:#ff0000;stroke-width:0.0375327;stroke-linecap:round;stroke-linejoin:round;stroke-dasharray:none;stroke-opacity:0.996078"
     d="m 160.83588,123.31588 -12.10286,55.53345"
     id="path30"
     transform="matrix(1.4098802,0,0,1.4098802,-113.71012,-96.484845)" /></svg>
