<?xml version="1.0" encoding="UTF-8" standalone="no"?>
<!-- Created with Inkscape (http://www.inkscape.org/) -->

<svg
   width="1920"
   height="800"
   viewBox="0 0 507.99999 211.66667"
   version="1.1"
   id="svg1"
   xml:space="preserve"
   inkscape:export-filename="safeking.svg"
   inkscape:export-xdpi="96"
   inkscape:export-ydpi="96"
   inkscape:version="1.3 (1:1.3+202307231459+0e150ed6c4)"
   sodipodi:docname="safeking.svg"
   xmlns:inkscape="http://www.inkscape.org/namespaces/inkscape"
   xmlns:sodipodi="http://sodipodi.sourceforge.net/DTD/sodipodi-0.dtd"
   xmlns:xlink="http://www.w3.org/1999/xlink"
   xmlns="http://www.w3.org/2000/svg"
   xmlns:svg="http://www.w3.org/2000/svg"><sodipodi:namedview
     id="namedview1"
     pagecolor="#ffffff"
     bordercolor="#000000"
     borderopacity="0.25"
     inkscape:showpageshadow="2"
     inkscape:pageopacity="0.0"
     inkscape:pagecheckerboard="0"
     inkscape:deskcolor="#d1d1d1"
     inkscape:document-units="px"
     inkscape:zoom="0.22093154"
     inkscape:cx="787.57429"
     inkscape:cy="203.68301"
     inkscape:window-width="1366"
     inkscape:window-height="699"
     inkscape:window-x="0"
     inkscape:window-y="0"
     inkscape:window-maximized="1"
     inkscape:current-layer="g13" /><defs
     id="defs1"><linearGradient
       id="linearGradient14"
       inkscape:collect="always"><stop
         style="stop-color:#f3ff00;stop-opacity:0.24227503;"
         offset="0.73101044"
         id="stop15" /><stop
         style="stop-color:#000080;stop-opacity:1;"
         offset="1"
         id="stop14" /></linearGradient><linearGradient
       id="linearGradient11"
       inkscape:collect="always"><stop
         style="stop-color:#ffe055;stop-opacity:1;"
         offset="0.72264516"
         id="stop11" /><stop
         style="stop-color:#00e737;stop-opacity:1;"
         offset="1"
         id="stop12" /></linearGradient><linearGradient
       id="linearGradient9"
       inkscape:collect="always"><stop
         style="stop-color:#ecff00;stop-opacity:1;"
         offset="0"
         id="stop9" /><stop
         style="stop-color:#79ff00;stop-opacity:0;"
         offset="1"
         id="stop10" /></linearGradient><linearGradient
       id="linearGradient3"
       inkscape:collect="always"><stop
         style="stop-color:#ffe055;stop-opacity:1;"
         offset="0"
         id="stop3" /><stop
         style="stop-color:#00e737;stop-opacity:1;"
         offset="0.99925232"
         id="stop4" /></linearGradient><linearGradient
       inkscape:collect="always"
       xlink:href="#linearGradient3"
       id="linearGradient4"
       x1="43.741364"
       y1="135.08647"
       x2="166.25864"
       y2="135.08647"
       gradientUnits="userSpaceOnUse"
       gradientTransform="matrix(0.55666679,0,0,0.55666679,69.268218,66.025541)" /><linearGradient
       inkscape:collect="always"
       xlink:href="#linearGradient9"
       id="linearGradient10"
       x1="3.0289114e-06"
       y1="188.15807"
       x2="153.4577"
       y2="188.15807"
       gradientUnits="userSpaceOnUse" /><linearGradient
       inkscape:collect="always"
       xlink:href="#linearGradient11"
       id="linearGradient12"
       x1="4.8328442e-05"
       y1="188.15807"
       x2="153.45767"
       y2="188.15807"
       gradientUnits="userSpaceOnUse" /><radialGradient
       inkscape:collect="always"
       xlink:href="#linearGradient14"
       id="radialGradient49"
       cx="105.53236"
       cy="178.34097"
       fx="105.53236"
       fy="178.34097"
       r="10.272288"
       gradientTransform="matrix(1,0,0,1.0743601,0,-13.261445)"
       gradientUnits="userSpaceOnUse" /><filter
       style="color-interpolation-filters:sRGB;"
       inkscape:label="Drop Shadow"
       id="filter72"
       x="-0.019840977"
       y="-0.089656435"
       width="1.0500964"
       height="1.2424047"><feFlood
         result="flood"
         in="SourceGraphic"
         flood-opacity="0.380392"
         flood-color="rgb(0,1,149)"
         id="feFlood71" /><feGaussianBlur
         result="blur"
         in="SourceGraphic"
         stdDeviation="3.212345"
         id="feGaussianBlur71" /><feOffset
         result="offset"
         in="blur"
         dx="1.069396"
         dy="6.000000"
         id="feOffset71" /><feComposite
         result="comp1"
         operator="out"
         in="flood"
         in2="offset"
         id="feComposite71" /><feComposite
         result="comp2"
         operator="atop"
         in="comp1"
         in2="SourceGraphic"
         id="feComposite72" /></filter></defs><g
     inkscape:label="Layer 1"
     inkscape:groupmode="layer"
     id="layer1"><g
       id="g13"
       transform="matrix(1.0698889,0,0,1.0698889,27.92372,-22.338761)"
       style="filter:url(#filter72)"><g
         id="g6"
         transform="matrix(1.3177819,0,0,1.3177819,-129.9317,-66.302515)"><path
           style="fill:url(#linearGradient4);stroke:#68ff00;stroke-width:1.2400817;stroke-linecap:round;stroke-linejoin:round;stroke-dasharray:none;stroke-opacity:1"
           d="m 106.27888,177.30782 -11.679454,-54.87065 22.129764,17.21972 11.41775,-34.51755 10.93142,34.60218 21.75868,-16.42741 -11.70159,53.67471 z"
           id="path1" /><g
           id="g3"
           transform="matrix(0.88102963,0,0,1.1984403,34.788579,-56.619713)"
           style="display:inline;fill:#f9f9f9;stroke:url(#radialGradient49);stroke-width:0.999992;stroke-dasharray:none"><path
             id="path8"
             style="fill:#f9f9f9;fill-opacity:1;stroke:#000080;stroke-width:0.999992;stroke-linecap:round;stroke-linejoin:round;stroke-dasharray:none;stroke-opacity:1"
             d="m 105.53236,167.80483 a 7.2810493,5.3526402 0 0 0 -7.281066,5.35265 7.2810493,5.3526402 0 0 0 3.111736,4.37488 l -0.71697,1.45149 -4.886025,9.89326 h 9.772325 9.77232 l -4.88603,-9.89326 -0.71697,-1.45149 a 7.2810493,5.3526402 0 0 0 3.11174,-4.37488 7.2810493,5.3526402 0 0 0 -7.28106,-5.35265 z" /></g><path
           d="m 127.71823,148.94695 a 5.6867542,5.6867542 0 0 0 -0.98753,0.0863 5.6867542,5.6867542 0 0 0 -0.95757,0.25683 5.6867542,5.6867542 0 0 0 -0.89813,0.41858 5.6867542,5.6867542 0 0 0 -0.81236,0.56896 5.6867542,5.6867542 0 0 0 -0.70073,0.70073 5.6867542,5.6867542 0 0 0 -0.56844,0.81184 5.6867542,5.6867542 0 0 0 -0.4191,0.89865 5.6867542,5.6867542 0 0 0 -0.25631,0.95757 5.6867542,5.6867542 0 0 0 -0.0863,0.98753 5.6867542,5.6867542 0 0 0 0.0656,0.84801 5.6867542,5.6867542 0 0 0 0.19172,0.82838 5.6867542,5.6867542 0 0 0 0.31316,0.79116 5.6867542,5.6867542 0 0 0 0.42788,0.73536 5.6867542,5.6867542 0 0 0 0.53278,0.66301 5.6867542,7.368244 0 0 0 -0.53278,0.85989 5.6867542,7.368244 0 0 0 -0.42788,0.95343 5.6867542,7.368244 0 0 0 -0.31316,1.02526 5.6867542,7.368244 0 0 0 -0.19172,1.07436 5.6867542,7.368244 0 0 0 -0.0656,1.09915 5.6867542,7.368244 0 0 0 0.0698,1.15239 5.6867542,7.368244 0 0 0 0.20826,1.12448 5.6867542,7.368244 0 0 0 0.34158,1.06815 5.6867542,7.368244 0 0 0 0.46612,0.98598 5.6867542,7.368244 0 0 0 0.57981,0.87902 5.6867542,7.368244 0 0 0 0.67851,0.75086 5.6867542,7.368244 0 0 0 0.76068,0.6041 5.6867542,7.368244 0 0 0 0.82424,0.44235 5.6867542,7.368244 0 0 0 0.86764,0.27026 5.6867542,7.368244 0 0 0 0.88987,0.0904 5.6867542,7.368244 0 0 0 0.30799,-0.0103 5.6867542,7.368244 0 0 0 0.30696,-0.0326 5.6867542,7.368244 0 0 0 0.30489,-0.0537 5.6867542,7.368244 0 0 0 0.30231,-0.0754 5.6867542,7.368244 0 0 0 0.29921,-0.0961 5.6867542,7.368244 0 0 0 0.29455,-0.11731 5.6867542,7.368244 0 0 0 0.28887,-0.13746 5.6867542,7.368244 0 0 0 0.28319,-0.15761 5.6867542,7.368244 0 0 0 0.27544,-0.17725 5.6867542,7.368244 0 0 0 0.2682,-0.19637 5.6867542,7.368244 0 0 0 0.25941,-0.21497 5.6867542,7.368244 0 0 0 0.25063,-0.23307 5.6867542,7.368244 0 0 0 0.23978,-0.25011 5.6867542,7.368244 0 0 0 0.22945,-0.26613 5.6867542,7.368244 0 0 0 0.21755,-0.28216 5.6867542,7.368244 0 0 0 0.20568,-0.29714 5.6867542,7.368244 0 0 0 0.19327,-0.31109 5.6867542,7.368244 0 0 0 0.17931,-0.32401 5.6867542,7.368244 0 0 0 0.16588,-0.33641 5.6867542,7.368244 0 0 0 0.15193,-0.34727 5.6867542,7.368244 0 0 0 0.13643,-0.3576 5.6867542,7.368244 0 0 0 0.12195,-0.36639 5.6867542,7.368244 0 0 0 0.10594,-0.37465 5.6867542,7.368244 0 0 0 0.0904,-0.38137 5.6867542,7.368244 0 0 0 0.0744,-0.38757 5.6867542,7.368244 0 0 0 0.0584,-0.39171 5.6867542,7.368244 0 0 0 0.0413,-0.39533 5.6867542,7.368244 0 0 0 0.0248,-0.39791 5.6867542,7.368244 0 0 0 0.009,-0.39894 5.6867542,7.368244 0 0 0 -0.0641,-1.10019 5.6867542,7.368244 0 0 0 -0.19017,-1.07538 5.6867542,7.368244 0 0 0 -0.31161,-1.02682 5.6867542,7.368244 0 0 0 -0.42685,-0.95498 5.6867542,7.368244 0 0 0 -0.53175,-0.86144 5.6867542,5.6867542 0 0 0 0.5302,-0.66249 5.6867542,5.6867542 0 0 0 0.42581,-0.73433 5.6867542,5.6867542 0 0 0 0.31161,-0.78961 5.6867542,5.6867542 0 0 0 0.19121,-0.82682 5.6867542,5.6867542 0 0 0 0.0656,-0.84595 5.6867542,5.6867542 0 0 0 -0.0109,-0.34365 5.6867542,5.6867542 0 0 0 -0.031,-0.34209 5.6867542,5.6867542 0 0 0 -0.0517,-0.33952 5.6867542,5.6867542 0 0 0 -0.0718,-0.3359 5.6867542,5.6867542 0 0 0 -0.0925,-0.33072 5.6867542,5.6867542 0 0 0 -0.11214,-0.32505 5.6867542,5.6867542 0 0 0 -0.13126,-0.31729 5.6867542,5.6867542 0 0 0 -0.15038,-0.30903 5.6867542,5.6867542 0 0 0 -0.16898,-0.2992 5.6867542,5.6867542 0 0 0 -0.18603,-0.28836 5.6867542,5.6867542 0 0 0 -0.20361,-0.27647 5.6867542,5.6867542 0 0 0 -0.22014,-0.26406 5.6867542,5.6867542 0 0 0 -0.23564,-0.25012 5.6867542,5.6867542 0 0 0 -0.25012,-0.23564 5.6867542,5.6867542 0 0 0 -0.26355,-0.21963 5.6867542,5.6867542 0 0 0 -0.27698,-0.2036 5.6867542,5.6867542 0 0 0 -0.28836,-0.18655 5.6867542,5.6867542 0 0 0 -0.2992,-0.16899 5.6867542,5.6867542 0 0 0 -0.30903,-0.15037 5.6867542,5.6867542 0 0 0 -0.31729,-0.13126 5.6867542,5.6867542 0 0 0 -0.32453,-0.11214 5.6867542,5.6867542 0 0 0 -0.33125,-0.092 5.6867542,5.6867542 0 0 0 -0.33589,-0.0724 5.6867542,5.6867542 0 0 0 -0.33952,-0.0517 5.6867542,5.6867542 0 0 0 -0.3421,-0.031 5.6867542,5.6867542 0 0 0 -0.34313,-0.0103 z"
           style="display:none;fill:#000080;stroke:#76bc00;stroke-width:0;stroke-linecap:round;stroke-linejoin:round"
           id="path7" /><circle
           style="fill:#000080;fill-opacity:1;stroke:#468719;stroke-width:0;stroke-linecap:round;stroke-linejoin:round;stroke-dasharray:none;stroke-opacity:1"
           id="path49"
           cx="127.71823"
           cy="151.08586"
           r="3.985292" /></g><g
         id="g12"
         transform="matrix(1.1240119,0,0,1.1240119,-10.50816,10.410199)"><g
           id="g50"
           transform="matrix(1.893458,0,0,1.893458,99.770534,-250.16798)"><text
             xml:space="preserve"
             style="font-style:normal;font-variant:normal;font-weight:normal;font-stretch:normal;font-size:35.2777px;line-height:normal;font-family:'Fira Sans';-inkscape-font-specification:'Fira Sans, Normal';font-variant-ligatures:normal;font-variant-caps:normal;font-variant-numeric:normal;font-variant-east-asian:normal;text-align:center;text-decoration-color:#000000;text-anchor:middle;fill:url(#linearGradient10);fill-opacity:1;stroke:url(#linearGradient12);stroke-width:3.96875;stroke-linecap:round;stroke-linejoin:round;stroke-dasharray:none"
             x="77.38147"
             y="200.31123"
             id="text8"><tspan
               sodipodi:role="line"
               id="tspan8"
               style="font-style:normal;font-variant:normal;font-weight:normal;font-stretch:normal;font-size:35.2777px;font-family:'Fira Sans';-inkscape-font-specification:'Fira Sans, Normal';font-variant-ligatures:normal;font-variant-caps:normal;font-variant-numeric:normal;font-variant-east-asian:normal;fill:url(#linearGradient10);fill-opacity:1;stroke:url(#linearGradient12);stroke-width:3.96875;stroke-dasharray:none"
               x="77.38147"
               y="200.31123">SAFEKING</tspan></text><text
             xml:space="preserve"
             style="font-style:normal;font-variant:normal;font-weight:normal;font-stretch:normal;font-size:35.2777px;line-height:normal;font-family:'Fira Sans';-inkscape-font-specification:'Fira Sans, Normal';font-variant-ligatures:normal;font-variant-caps:normal;font-variant-numeric:normal;font-variant-east-asian:normal;text-align:center;text-decoration-color:#000000;text-anchor:middle;fill:#00ffff;fill-opacity:1;stroke:#000080;stroke-width:3.96875;stroke-linecap:round;stroke-linejoin:round;stroke-dasharray:none"
             x="38.611378"
             y="200.31123"
             id="text9"><tspan
               sodipodi:role="line"
               id="tspan9"
               style="font-style:normal;font-variant:normal;font-weight:normal;font-stretch:normal;font-size:35.2777px;font-family:'Fira Sans';-inkscape-font-specification:'Fira Sans, Normal';font-variant-ligatures:normal;font-variant-caps:normal;font-variant-numeric:normal;font-variant-east-asian:normal;fill:#00ffff;fill-opacity:1;stroke:#00cda7;stroke-width:3.96875;stroke-dasharray:none;stroke-opacity:1"
               x="38.611378"
               y="200.31123">SAFE</tspan></text></g></g></g></g><g
     inkscape:groupmode="layer"
     id="layer2"
     inkscape:label="bg"
     style="filter:url(#filter72)"
     transform="matrix(1.4098802,0,0,1.4098802,-111.08876,-93.275086)" /></svg>
